<?xml version="1.0" standalone="no"?>
<!DOCTYPE svg PUBLIC "-//W3C//DTD SVG 20010904//EN"
 "http://www.w3.org/TR/2001/REC-SVG-20010904/DTD/svg10.dtd">
<svg version="1.0" xmlns="http://www.w3.org/2000/svg"
 width="64.000000pt" height="64.000000pt" viewBox="0 0 64.000000 64.000000"
 preserveAspectRatio="xMidYMid meet">

<g transform="translate(0.000000,64.000000) scale(0.100000,-0.100000)"
fill="#000000" stroke="none">
<path d="M226 594 c-71 -22 -159 -112 -180 -184 -20 -67 -20 -112 -1 -178 16
-54 58 -112 71 -100 4 5 -6 32 -22 60 -25 46 -29 64 -29 128 0 85 20 133 77
186 95 90 232 97 281 15 22 -38 21 -89 -3 -128 -23 -39 -41 -49 -101 -58 -26
-4 -61 -15 -78 -26 -96 -58 -93 -200 5 -256 46 -27 91 -29 164 -7 75 22 162
109 184 184 34 115 12 206 -73 291 -85 84 -180 108 -295 73z m114 -414 c0 -13
-7 -20 -20 -20 -13 0 -20 7 -20 20 0 13 7 20 20 20 13 0 20 -7 20 -20z"/>
<path d="M307 484 c-16 -16 -7 -44 14 -44 15 0 20 5 17 22 -3 22 -19 33 -31
22z"/>
</g>
</svg>
